<svg width="306" height="164" viewBox="0 0 306 164" fill="none" xmlns="http://www.w3.org/2000/svg">
<path d="M1 151.88V157.43L2.80952 155.471L5.70476 162L8.6 148.942L11.1333 151.88L13.3048 148.942H16.9238L19.4571 146.657L21.6286 160.041L25.2476 162L28.8667 146.657L29.9524 149.269M31.0381 151.88L29.9524 149.269M29.9524 149.269L35.019 155.471L38.2762 153.512L40.8095 155.471L42.981 151.88L50.581 146.657L56.3714 151.88L62.5238 149.269L67.5905 153.512L70.1238 149.269L71.9333 148.942L73.7429 151.88L77 146.657H79.1714V144.698L85.6857 149.269L92.5619 138.169L97.6286 144.698L99.4381 141.434L105.59 149.269L109.21 148.942L115.362 146.657L120.79 148.942L123.686 144.698V141.434H130.924L133.095 129.682L135.267 121.194L139.971 48.0703L146.848 61.4545L150.467 43.8264L152.276 41.5413L154.086 48.0703V81.0413H155.895L159.152 77.4504V91.4876L166.39 99.3223L169.286 115.971H172.181L175.076 127.397L179.419 122.826H181.952L185.571 119.562V89.8554L188.467 88.2231L190.638 101.607L192.81 97.3636L196.067 99.3223L199.324 115.971L202.943 109.442L206.924 84.3058L209.095 95.7314L211.629 91.4876L214.524 95.7314L218.867 68.3099L221.038 71.9008L223.571 58.843L226.105 64.719L228.276 54.9256L230.81 58.843L232.619 54.9256L238.41 64.719L242.752 54.9256V61.4545L247.095 54.9256L250.352 68.3099L252.524 64.719L255.419 68.3099L258.314 63.0868H260.486L264.467 58.843V4L269.895 15.7521V17.874M269.895 19.9959V17.874M269.895 17.874L273.152 19.9959L276.41 11.5083L278.943 14.1198L280.752 11.5083L284.01 21.6281L285.819 17.874L288.352 21.6281L291.61 34.3595L295.952 38.9298L297.762 28.4835L299.933 51.3347L302.105 34.3595L303.552 33.0537L305 44.4793" stroke="#1CAB19"/>
<path d="M1 157.43V151.88V0.5H305V44.4793L303.552 33.0537L302.105 34.3595L299.933 51.3347L297.762 28.4835L295.952 38.9298L291.61 34.3595L288.352 21.6281L285.819 17.874L284.01 21.6281L280.752 11.5083L278.943 14.1198L276.41 11.5083L273.152 19.9959L269.895 17.874V15.7521L264.467 4V58.843L260.486 63.0868H258.314L255.419 68.3099L252.524 64.719L250.352 68.3099L247.095 54.9256L242.752 61.4545V54.9256L238.41 64.719L232.619 54.9256L230.81 58.843L228.276 54.9256L226.105 64.719L223.571 58.843L221.038 71.9008L218.867 68.3099L214.524 95.7314L211.629 91.4876L209.095 95.7314L206.924 84.3058L202.943 109.442L199.324 115.971L196.067 99.3223L192.81 97.3636L190.638 101.607L188.467 88.2231L185.571 89.8554V119.562L181.952 122.826H179.419L175.076 127.397L172.181 115.971H169.286L166.39 99.3223L159.152 91.4876V77.4504L155.895 81.0413H154.086V48.0703L152.276 41.5413L150.467 43.8264L146.848 61.4545L139.971 48.0703L135.267 121.194L133.095 129.682L130.924 141.434H123.686V144.698L120.79 148.942L115.362 146.657L109.21 148.942L105.59 149.269L99.4381 141.434L97.6286 144.698L92.5619 138.169L85.6857 149.269L79.1714 144.698V146.657H77L73.7429 151.88L71.9333 148.942L70.1238 149.269L67.5905 153.512L62.5238 149.269L56.3714 151.88L50.581 146.657L42.981 151.88L40.8095 155.471L38.2762 153.512L35.019 155.471L29.9524 149.269L28.8667 146.657L25.2476 162L21.6286 160.041L19.4571 146.657L16.9238 148.942H13.3048L11.1333 151.88L8.6 148.942L5.70476 162L2.80952 155.471L1 157.43Z" fill="url(#paint0_linear_603_570)" fill-opacity="0.5"/>
<path d="M196.067 99.2768L199.324 115.926L202.943 109.397M166.39 99.4255L169.286 116.074H172.181L175 128.5M248 58.9999L250.5 69.4999M291.609 34.4297L295.952 38.9999" stroke="#E11B00"/>
<defs>
<linearGradient id="paint0_linear_603_570" x1="153" y1="0.5" x2="153" y2="162" gradientUnits="userSpaceOnUse">
<stop stop-color="#ACCFAB" stop-opacity="0"/>
<stop offset="1" stop-color="#ACCFAB"/>
</linearGradient>
</defs>
</svg>
