<svg width="24" height="25" viewBox="0 0 24 25" fill="none" xmlns="http://www.w3.org/2000/svg">
<path d="M16.5 5.9375H7.5C7.35082 5.9375 7.20774 5.99676 7.10225 6.10225C6.99676 6.20774 6.9375 6.35082 6.9375 6.5V11C6.9375 11.1492 6.99676 11.2923 7.10225 11.3977C7.20774 11.5032 7.35082 11.5625 7.5 11.5625H16.5C16.6492 11.5625 16.7923 11.5032 16.8977 11.3977C17.0032 11.2923 17.0625 11.1492 17.0625 11V6.5C17.0625 6.35082 17.0032 6.20774 16.8977 6.10225C16.7923 5.99676 16.6492 5.9375 16.5 5.9375ZM15.9375 10.4375H8.0625V7.0625H15.9375V10.4375ZM18.75 2.9375H5.25C4.9019 2.9375 4.56806 3.07578 4.32192 3.32192C4.07578 3.56806 3.9375 3.9019 3.9375 4.25V20.75C3.9375 21.0981 4.07578 21.4319 4.32192 21.6781C4.56806 21.9242 4.9019 22.0625 5.25 22.0625H18.75C19.0981 22.0625 19.4319 21.9242 19.6781 21.6781C19.9242 21.4319 20.0625 21.0981 20.0625 20.75V4.25C20.0625 3.9019 19.9242 3.56806 19.6781 3.32192C19.4319 3.07578 19.0981 2.9375 18.75 2.9375ZM18.9375 20.75C18.9375 20.7997 18.9177 20.8474 18.8826 20.8826C18.8474 20.9177 18.7997 20.9375 18.75 20.9375H5.25C5.20027 20.9375 5.15258 20.9177 5.11742 20.8826C5.08225 20.8474 5.0625 20.7997 5.0625 20.75V4.25C5.0625 4.20027 5.08225 4.15258 5.11742 4.11742C5.15258 4.08225 5.20027 4.0625 5.25 4.0625H18.75C18.7997 4.0625 18.8474 4.08225 18.8826 4.11742C18.9177 4.15258 18.9375 4.20027 18.9375 4.25V20.75ZM9.1875 14.375C9.1875 14.5604 9.13252 14.7417 9.0295 14.8958C8.92649 15.05 8.78007 15.1702 8.60877 15.2411C8.43746 15.3121 8.24896 15.3307 8.0671 15.2945C7.88525 15.2583 7.7182 15.169 7.58709 15.0379C7.45598 14.9068 7.36669 14.7398 7.33051 14.5579C7.29434 14.376 7.31291 14.1875 7.38386 14.0162C7.45482 13.8449 7.57498 13.6985 7.72915 13.5955C7.88332 13.4925 8.06458 13.4375 8.25 13.4375C8.49864 13.4375 8.7371 13.5363 8.91291 13.7121C9.08873 13.8879 9.1875 14.1264 9.1875 14.375ZM12.9375 14.375C12.9375 14.5604 12.8825 14.7417 12.7795 14.8958C12.6765 15.05 12.5301 15.1702 12.3588 15.2411C12.1875 15.3121 11.999 15.3307 11.8171 15.2945C11.6352 15.2583 11.4682 15.169 11.3371 15.0379C11.206 14.9068 11.1167 14.7398 11.0805 14.5579C11.0443 14.376 11.0629 14.1875 11.1339 14.0162C11.2048 13.8449 11.325 13.6985 11.4792 13.5955C11.6333 13.4925 11.8146 13.4375 12 13.4375C12.2486 13.4375 12.4871 13.5363 12.6629 13.7121C12.8387 13.8879 12.9375 14.1264 12.9375 14.375ZM16.6875 14.375C16.6875 14.5604 16.6325 14.7417 16.5295 14.8958C16.4265 15.05 16.2801 15.1702 16.1088 15.2411C15.9375 15.3121 15.749 15.3307 15.5671 15.2945C15.3852 15.2583 15.2182 15.169 15.0871 15.0379C14.956 14.9068 14.8667 14.7398 14.8305 14.5579C14.7943 14.376 14.8129 14.1875 14.8839 14.0162C14.9548 13.8449 15.075 13.6985 15.2292 13.5955C15.3833 13.4925 15.5646 13.4375 15.75 13.4375C15.9986 13.4375 16.2371 13.5363 16.4129 13.7121C16.5887 13.8879 16.6875 14.1264 16.6875 14.375ZM9.1875 18.125C9.1875 18.3104 9.13252 18.4917 9.0295 18.6458C8.92649 18.8 8.78007 18.9202 8.60877 18.9911C8.43746 19.0621 8.24896 19.0807 8.0671 19.0445C7.88525 19.0083 7.7182 18.919 7.58709 18.7879C7.45598 18.6568 7.36669 18.4898 7.33051 18.3079C7.29434 18.126 7.31291 17.9375 7.38386 17.7662C7.45482 17.5949 7.57498 17.4485 7.72915 17.3455C7.88332 17.2425 8.06458 17.1875 8.25 17.1875C8.49864 17.1875 8.7371 17.2863 8.91291 17.4621C9.08873 17.6379 9.1875 17.8764 9.1875 18.125ZM12.9375 18.125C12.9375 18.3104 12.8825 18.4917 12.7795 18.6458C12.6765 18.8 12.5301 18.9202 12.3588 18.9911C12.1875 19.0621 11.999 19.0807 11.8171 19.0445C11.6352 19.0083 11.4682 18.919 11.3371 18.7879C11.206 18.6568 11.1167 18.4898 11.0805 18.3079C11.0443 18.126 11.0629 17.9375 11.1339 17.7662C11.2048 17.5949 11.325 17.4485 11.4792 17.3455C11.6333 17.2425 11.8146 17.1875 12 17.1875C12.2486 17.1875 12.4871 17.2863 12.6629 17.4621C12.8387 17.6379 12.9375 17.8764 12.9375 18.125ZM16.6875 18.125C16.6875 18.3104 16.6325 18.4917 16.5295 18.6458C16.4265 18.8 16.2801 18.9202 16.1088 18.9911C15.9375 19.0621 15.749 19.0807 15.5671 19.0445C15.3852 19.0083 15.2182 18.919 15.0871 18.7879C14.956 18.6568 14.8667 18.4898 14.8305 18.3079C14.7943 18.126 14.8129 17.9375 14.8839 17.7662C14.9548 17.5949 15.075 17.4485 15.2292 17.3455C15.3833 17.2425 15.5646 17.1875 15.75 17.1875C15.9986 17.1875 16.2371 17.2863 16.4129 17.4621C16.5887 17.6379 16.6875 17.8764 16.6875 18.125Z" fill="white"/>
</svg>
