<svg width="14" height="10" viewBox="0 0 14 10" fill="none" xmlns="http://www.w3.org/2000/svg">
<path d="M1.02148 9.68945V8.95117C2.20508 8.2832 2.97852 7.67969 3.3418 7.14062C3.7168 6.58984 3.9043 5.95703 3.9043 5.24219C3.9043 4.91406 3.8457 4.66797 3.72852 4.50391C3.59961 4.33984 3.45898 4.25781 3.30664 4.25781C3.18945 4.25781 3.00195 4.30469 2.74414 4.39844C2.48633 4.49219 2.22852 4.53906 1.9707 4.53906C1.47852 4.53906 1.05664 4.36328 0.705078 4.01172C0.353516 3.66016 0.177734 3.23242 0.177734 2.72852C0.177734 2.16602 0.400391 1.67383 0.845703 1.25195C1.30273 0.830078 1.85352 0.619141 2.49805 0.619141C3.27148 0.619141 3.96875 0.953125 4.58984 1.62109C5.22266 2.28906 5.53906 3.13281 5.53906 4.15234C5.53906 5.38281 5.14062 6.50781 4.34375 7.52734C3.55859 8.54688 2.45117 9.26758 1.02148 9.68945ZM9.40625 9.68945V8.95117C10.4258 8.42383 11.1582 7.86719 11.6035 7.28125C12.0605 6.68359 12.2891 6.03906 12.2891 5.34766C12.2891 4.9375 12.2305 4.65039 12.1133 4.48633C11.9961 4.33398 11.8672 4.25781 11.7266 4.25781C11.5742 4.25781 11.3691 4.30469 11.1113 4.39844C10.8418 4.49219 10.6074 4.53906 10.4082 4.53906C9.92773 4.53906 9.50586 4.35742 9.14258 3.99414C8.79102 3.63086 8.61523 3.19727 8.61523 2.69336C8.61523 2.13086 8.83203 1.64453 9.26562 1.23438C9.69922 0.824219 10.2324 0.619141 10.8652 0.619141C11.6621 0.619141 12.377 0.964844 13.0098 1.65625C13.6426 2.33594 13.959 3.17383 13.959 4.16992C13.959 5.3418 13.5664 6.4375 12.7812 7.45703C12.0078 8.46484 10.8828 9.20898 9.40625 9.68945Z" fill="#D93C10"/>
</svg>
